<svg width="66" height="66" viewBox="0 0 66 66" fill="none" xmlns="http://www.w3.org/2000/svg">
<path d="M48.9199 2.25586C47.8758 2.47499 46.793 2.97773 45.8391 3.66093C45.4137 3.9832 37.009 12.2848 27.1734 22.1332L9.30703 40.0254L5.68477 50.9953C3.68672 57.0281 2.0625 62.1328 2.0625 62.3391C2.0625 63.0867 2.92617 63.9375 3.69961 63.9375C3.82852 63.9375 8.89453 62.2875 14.9531 60.2637L25.9746 56.5898L44.1633 38.3754C63.9891 18.5496 62.8934 19.7098 63.5637 17.5312C63.8086 16.7707 63.8602 16.2551 63.8602 15.1465C63.8602 14.0379 63.8086 13.5223 63.5637 12.7617C62.9836 10.8539 62.6355 10.4027 59.052 6.81914C55.8809 3.63515 55.7133 3.49335 54.6434 2.97773C54.0246 2.68125 53.1352 2.35898 52.6453 2.25586C51.5625 2.02382 49.9641 2.02382 48.9199 2.25586ZM52.6324 5.80078C53.6379 6.17461 54.1793 6.65156 57.1184 9.6164C59.8641 12.4137 60.2508 12.9551 60.4312 14.373C60.6762 16.3195 60.1348 17.673 58.3945 19.4004L57.2344 20.5605L51.2918 14.6309L45.3621 8.70117L46.5223 7.57969C47.1668 6.96093 47.9402 6.3164 48.2367 6.13593C49.5258 5.37539 51.1629 5.25937 52.6324 5.80078ZM48.8941 17.1187L54.7852 23.0098L39.9609 37.834L25.1367 52.6582L19.207 46.7285L13.2773 40.7988L28.0629 26.0133C36.2098 17.8664 42.8871 11.2148 42.9258 11.2148C42.9645 11.2148 45.6457 13.8703 48.8941 17.1187ZM16.8094 49.2293L21.9527 54.3727L14.3473 56.8992C10.1578 58.2914 6.67734 59.4258 6.6 59.4258C6.52266 59.4258 7.59258 56.0484 8.97187 51.9105C11.6918 43.7637 11.5758 44.0859 11.6273 44.0859C11.6531 44.0859 13.9863 46.3934 16.8094 49.2293Z" fill="white"/>
</svg>
