<svg width="60" height="68" viewBox="0 0 60 68" fill="none" xmlns="http://www.w3.org/2000/svg">
<path d="M30 1L1.22705 17.9053V50.1788L30 67L58.7729 50.8633V17.8212L30 1ZM54.3327 18.7609L47.9291 22.74L37.0852 8.77255L54.3327 18.7609ZM30.3828 5.185L44.0022 22.3252L16.0848 22.7371L30.3828 5.185ZM23.3411 8.76965L13.0106 21.9192L6.17769 17.9923L23.3411 8.76965ZM4.13014 20.211L11.8157 24.8223L4.13014 42.412V20.211ZM4.8987 48.6446L13.4369 27.4702L27.8219 52.1451L4.8987 48.6446ZM16.0848 25.1645H44.9419L30 50.7791L16.0848 25.1645ZM32.5609 52.1451L47.175 27.4702L55.5305 48.8157L32.5609 52.1451ZM55.5276 41.4724L49.2081 24.6512L55.5276 21.3217V41.4724Z" fill="white" stroke="white" stroke-miterlimit="10"/>
</svg>
