<svg width="66" height="66" viewBox="0 0 66 66" fill="none" xmlns="http://www.w3.org/2000/svg">
<path d="M32.0978 2.87461C31.479 3.08086 30.6025 3.9832 30.4349 4.58906C30.3318 4.93711 30.2931 10.9699 30.2931 23.9766V42.8613L24.2603 36.8414C19.7228 32.3039 18.0986 30.757 17.6603 30.5637C15.9072 29.7645 13.9478 30.873 13.8189 32.7422C13.7158 34.1859 13.3161 33.709 22.6747 43.1062C31.7884 52.2457 31.8786 52.3359 33.0775 52.3359C34.2119 52.3359 34.3923 52.1813 43.4029 43.1578C49.9513 36.5965 52.0009 34.4824 52.1943 34.0312C53.2384 31.7109 50.9181 29.3906 48.5978 30.4348C48.1595 30.6281 46.5353 32.175 41.9333 36.777L35.8361 42.8484L35.8103 23.7832L35.7716 4.70508L35.4107 4.09922C34.7661 3.00352 33.3224 2.46211 32.0978 2.87461Z" fill="white"/>
<path d="M4.25403 47.141C3.72551 47.4117 3.45481 47.6566 3.15832 48.1336L2.7716 48.7652L2.73293 54.6434C2.70715 58.5879 2.73293 60.7406 2.83606 61.1789C3.00363 61.9523 3.55793 62.6742 4.2927 63.0738L4.8341 63.3574H33.0646H61.295L61.8107 63.0738C62.4552 62.7258 62.8419 62.3262 63.0997 61.7203C63.2673 61.3078 63.2931 60.341 63.2931 55.0688V48.8941L62.9966 48.327C62.829 48.0176 62.4423 47.5793 62.1458 47.373C61.6431 47.025 61.5013 46.9863 60.5989 46.9863C59.7095 46.9863 59.5419 47.025 59.0779 47.3473C58.7943 47.5406 58.4075 47.9918 58.2142 48.327L57.879 48.9586V53.4187V57.8789H33.0646H8.26301L8.22434 53.2641L8.18567 48.6363L7.82473 48.1078C7.32199 47.3344 6.61301 46.909 5.71067 46.8316C5.06613 46.7801 4.85988 46.8188 4.25403 47.141Z" fill="white"/>
</svg>
