<svg width="47" height="47" viewBox="0 0 47 47" fill="none" xmlns="http://www.w3.org/2000/svg">
<path d="M36.4054 11.5345C33.9967 10.4182 31.4312 9.59573 28.7287 9.12573C28.3958 9.71323 28.0042 10.5161 27.7496 11.1624C24.8904 10.7316 22.0508 10.7316 19.2504 11.1624C18.9763 10.5161 18.5846 9.71323 18.2517 9.12573C15.5492 9.59573 12.9838 10.4182 10.575 11.5345C5.71835 18.8586 4.40627 26.0066 5.05252 33.037C8.28377 35.4458 11.3975 36.895 14.4721 37.8545C15.2358 36.8166 15.9017 35.7004 16.4892 34.545C15.3729 34.1337 14.3154 33.605 13.3167 32.9979C13.5908 32.802 13.8454 32.5866 14.1 32.3908C20.2296 35.25 26.8683 35.25 32.9196 32.3908C33.1742 32.6062 33.4287 32.802 33.7029 32.9979C32.7042 33.605 31.6271 34.1141 30.5304 34.545C31.1179 35.7004 31.7837 36.8166 32.5475 37.8545C35.6221 36.895 38.7554 35.4458 41.9671 33.037C42.7308 24.8708 40.655 17.8011 36.4446 11.5345H36.4054ZM17.3117 28.7287C15.4708 28.7287 13.9629 27.025 13.9629 24.9295C13.9629 22.8341 15.4317 21.1304 17.3117 21.1304C19.1917 21.1304 20.68 22.8341 20.6604 24.9295C20.6604 27.0054 19.1917 28.7287 17.3117 28.7287ZM29.6687 28.7287C27.8279 28.7287 26.32 27.025 26.32 24.9295C26.32 22.8341 27.7887 21.1304 29.6687 21.1304C31.5487 21.1304 33.0371 22.8341 33.0175 24.9295C33.0175 27.0054 31.5487 28.7287 29.6687 28.7287Z" fill="white"/>
</svg>
