<svg width="200" height="200" viewBox="0 0 200 200" fill="none" xmlns="http://www.w3.org/2000/svg">
<g clip-path="url(#clip0_194_363)">
<path d="M2.96875 0.898438C2.14844 1.36719 1.13281 2.38281 0.742188 3.125C0.0390625 4.41406 0 7.53906 0 92.1094C0 179.141 0 179.727 0.78125 181.25C1.28906 182.227 2.10938 183.086 3.04688 183.555C3.82812 183.945 15.2344 187.812 28.3984 192.148L52.2656 200H100.039H147.812L171.641 192.148C184.766 187.812 196.172 183.945 196.953 183.555C197.891 183.086 198.711 182.227 199.219 181.25C200 179.727 200 179.141 200 92.1094C200 7.53906 199.961 4.41406 199.258 3.125C198.438 1.5625 196.016 0 194.414 0C193.789 0 182.617 3.51562 169.57 7.8125L145.859 15.625H100.039H54.2188L30.5078 7.8125C17.4609 3.51562 6.25 0 5.625 0C5 0 3.78906 0.390625 2.96875 0.898438ZM30.0781 20.0391L47.0703 25.625L47.1875 105.781C47.2266 149.883 47.2266 185.938 47.1875 185.938C47.1094 185.938 39.1797 183.32 29.4922 180.156L11.9141 174.375L11.7969 94.1797C11.7188 17.9297 11.7578 14.0234 12.3828 14.2188C12.7734 14.3359 20.7422 16.9531 30.0781 20.0391ZM188.203 94.2188L188.086 174.375L171.094 179.961C161.758 183.047 153.789 185.664 153.398 185.781C152.773 185.977 152.734 182.07 152.812 105.82L152.93 25.6641L170.312 19.8828C179.883 16.7188 187.812 14.1406 188.008 14.1016C188.164 14.0625 188.242 50.1172 188.203 94.2188ZM141.016 107.812V188.281H100H58.9844V107.812V27.3438H100H141.016V107.812Z" fill="white"/>
</g>
<defs>
<clipPath id="clip0_194_363">
<rect width="200" height="200" fill="white"/>
</clipPath>
</defs>
</svg>
