<svg width="70" height="33" viewBox="0 0 70 33" fill="none" xmlns="http://www.w3.org/2000/svg">
<path d="M22.8539 22.7125C22.8539 22.3547 22.9338 21.7584 23.0536 20.7248C23.1735 19.6911 23.8527 16.7095 26.4897 15.0398C26.3699 15.0398 26.1701 14.9602 26.0502 14.9602C25.6906 14.9602 24.6119 14.8807 23.0936 15.4373C23.6929 14.5229 25.9304 13.052 26.7694 12.6147C26.8493 12.5352 26.9692 12.4954 27.0091 12.4954C26.0502 9.43427 24.0126 6.92969 21.1358 5.45874C19.3379 4.50462 17.46 4.02756 14.9429 3.94805H9.90867C5.87328 3.94805 4.03539 3.86853 2.59703 3.59025C1.3984 3.2722 0.31963 2.63612 0.31963 2.63612L0 2.43735L0.0799075 2.79514C0.0799075 2.91441 0.39954 5.61777 3.63584 8.00308C4.23516 8.48014 4.71461 8.91745 4.71461 10.4679V24.9786C4.71461 26.529 4.39498 26.9663 3.6758 27.3639C2.87671 27.8409 1.27854 28.7553 1.27854 28.7951L0.719173 29.1131H13.8642C17.5399 29.1131 19.8573 28.5168 22.3345 26.8471C22.8139 26.529 23.2534 26.1712 23.613 25.8929C23.3733 24.0244 23.6929 22.3547 23.9326 21.4006C23.8927 21.3211 23.2135 21.9174 22.8539 22.7125ZM14.4635 22.9908H11.6267V10.1101H14.4635C18.1792 10.1101 20.2968 12.4557 20.2968 16.5505C20.2968 20.685 18.1792 22.9908 14.4635 22.9908ZM50.9018 26.211C51.1416 25.7339 51.2614 25.1376 51.2614 24.5413C51.2614 23.9449 51.0616 23.3486 50.8219 22.8715L51.5411 22.9908C52.0206 23.0703 52.9395 23.6666 52.9395 24.5413C52.9395 25.6147 51.8607 26.0917 50.9018 26.211ZM64.8059 26.8073C62.2888 28.477 60.0114 29.0734 56.3356 29.0734H56.2158C56.8151 28.3578 57.1347 27.4036 57.1347 26.4495C57.1347 25.0581 56.4555 23.8257 55.3767 22.9908H56.9349C60.6507 22.9908 62.7683 20.6452 62.7683 16.5505C62.7683 12.4159 60.6507 10.1101 56.9349 10.1101H54.0982V11.7401C53.6587 11.6606 53.2991 11.6208 52.8995 11.6208C52.2203 11.6208 51.4612 11.7401 51.2614 11.8593C52.0605 11.1835 52.9395 10.9052 53.5388 10.7859C50.9018 10.1896 48.4247 11.7003 48.0651 12.0979C48.3847 11.422 48.984 10.8257 49.3836 10.4281C48.5445 10.7462 47.7454 11.1437 47.1062 11.5811V10.5077C47.1062 8.8777 46.6667 8.48014 46.0274 8.04283C42.7911 5.69727 42.4715 2.95416 42.4715 2.8349L42.3916 2.4771L42.7112 2.67587C42.7112 2.67587 43.79 3.39147 44.9886 3.63C46.387 3.94805 48.3048 3.9878 52.3002 3.9878H57.3345C59.8516 4.10706 61.7295 4.54437 63.5274 5.4985C67.6028 7.60553 70 11.7003 70 16.4709C70 19.4128 69.0411 22.2752 67.363 24.3027C66.8037 25.2569 65.8847 26.0917 64.8059 26.8073ZM52.1005 21.8777C51.1815 21.8777 50.2226 22.0764 50.2226 22.0764C50.0228 21.8777 48.8242 21.003 48.3048 20.8838C49.2637 21.9174 48.984 22.9908 48.7443 23.3486C48.5445 23.6666 48.1849 23.8257 47.9053 23.8257C47.6655 23.8257 47.4258 23.7462 47.1861 23.5871V17.7431C47.4258 17.4251 47.6655 17.0673 47.9852 16.789C48.6644 15.9939 49.7431 15.5168 50.8219 15.5168C51.5011 15.5168 52.1404 15.7156 52.5799 16.0734L52.9395 16.3119L53.2591 15.9939C53.4589 15.7951 53.8585 15.6361 54.298 15.4373V22.315C53.5388 21.9969 52.8596 21.8777 52.1005 21.8777ZM50.9018 13.7676C48.6644 13.4495 45.2683 14.9603 43.5103 17.107C43.8699 15.6758 45.4281 13.3303 47.3459 12.2569C47.3459 12.2569 46.387 13.4495 46.7865 13.6483C47.3859 13.9664 48.9441 11.5015 50.9817 11.422C50.9817 11.422 49.4635 12.1376 49.7831 12.6942C50.0228 13.052 51.0617 12.2171 52.7797 12.2171C54.9372 12.2171 56.855 13.5291 57.774 14.5627C56.2557 14.1254 53.4589 14.8807 52.6199 15.5963C51.3413 14.6422 48.9041 14.7615 47.5057 16.3914C45.7477 18.3792 44.669 20.685 44.3893 21.4006C43.79 20.9235 43.2306 20.4862 42.871 20.2079C42.5514 19.9694 42.2717 19.8501 41.9521 19.7309C43.6301 17.3853 46.9863 13.9266 50.9018 13.7676ZM27.4886 7.04895C27.2489 4.22633 28.5674 2.67588 29.1667 2.03979C30.4852 0.648361 32.2831 -0.106991 35 0.0122743C39.1952 0.250806 41.2329 3.11318 41.2329 6.17434C41.2329 7.8043 40.3938 9.95109 39.1952 11.3028C39.1153 11.2233 38.9954 11.104 38.9555 11.0642C38.1564 10.3486 37.0377 9.43427 36.3185 8.36088C37.7569 6.25385 37.1575 2.99392 34.5605 2.99392C32.9224 2.99392 31.6039 4.66364 32.1632 6.69116C31.9235 7.60553 31.8037 8.79818 31.9635 9.6728C30.0856 8.71867 29.4863 7.44651 29.1267 6.33336C28.6473 7.28749 28.3276 8.59941 28.6872 9.87158C28.7671 9.99084 27.6884 9.03671 27.4886 7.04895ZM28.5674 12.1376C28.3676 12.8135 25.9304 13.5291 24.7317 14.7217C26.5297 14.3639 27.3687 14.6422 27.6884 15.3976C27.8881 15.9541 27.6084 16.6697 27.4886 17.5046C28.0879 16.8287 30.1256 15.4771 31.6438 15.159C31.2842 15.0398 30.3653 14.841 30.0057 14.841C31.0845 13.5688 33.4817 13.1713 34.8002 13.4495C33.9612 13.37 32.2831 13.8869 31.6039 14.4037C32.2032 14.5229 32.7626 14.6422 33.242 14.841C32.4429 15.159 31.4441 16.1132 31.0845 17.107C32.1233 16.3914 34.2009 16.5505 34.5605 18.0612C34.8002 19.0948 34.0811 19.9694 33.7215 20.1682C34.0411 20.2477 34.7603 20.1682 35.04 19.9694C34.9201 20.4067 34.3208 21.1223 33.8813 21.2416C34.96 21.2416 36.5183 20.526 36.9578 19.4923C36.9578 19.4923 36.2785 19.7309 35.9989 19.4128C35.6792 19.0948 36.1187 17.7829 36.1187 17.7829C36.1187 17.7829 35.6792 18.3394 35.3196 18.0214C34.96 17.6636 35.4395 16.4709 35.6393 16.2324C35.2797 16.1131 34.3208 15.9939 33.8813 16.0336C35.0799 15.5963 37.7968 15.3578 38.0765 15.9144C38.3162 16.3517 37.7169 17.1865 37.7169 17.1865C38.1964 17.107 39.5947 17.1865 40.0742 17.7431C40.5537 18.3394 40.274 19.1345 40.274 19.1345C41.3527 18.578 42.3116 16.9083 42.0719 15.2385C41.9521 15.5963 41.4726 16.1529 40.9932 16.2722C41.0731 15.7156 40.6336 15.4373 40.274 15.318C40.4737 14.2844 40.0342 12.9725 38.516 11.5413C37.2374 10.2691 34.8402 8.59941 34.96 6.41287C34.6005 6.88993 34.2808 8.28136 34.6404 9.03671C35.6792 10.2294 37.8767 11.5413 38.4361 13.5688C37.4772 11.1835 32.8025 9.315 32.9623 6.05507C32.363 6.6514 32.0034 8.99696 32.4829 10.1896C33.4018 10.7462 34.161 11.6208 34.2808 12.4557C33.4418 10.5474 30.0057 10.1896 29.0468 7.92357C28.8071 8.75843 28.9269 9.79206 29.4064 10.4281C29.4064 10.4281 28.5674 10.1101 26.7694 10.1896C27.4087 10.3884 28.6872 11.4618 28.5674 12.1376ZM38.2763 14.8807C37.2374 14.8807 36.9578 14.0856 36.718 13.2508C37.9167 13.7676 38.2763 14.8807 38.2763 14.8807ZM51.3813 30.4648C52.1005 31.1406 53.8585 31.6177 54.7374 31.1804C54.1781 32.1345 51.661 33.4464 49.3436 32.8501C47.1062 32.2538 46.1073 30.1468 46.1073 28.7951C45.0285 29.8685 45.3082 31.5382 46.1073 32.2538C45.2683 32.0152 43.9498 31.1009 43.71 29.5107C43.5103 28.1192 44.3094 26.529 42.871 25.2569C42.032 24.4618 40.6336 23.3884 39.7945 22.7523C37.9966 21.3608 38.6358 20.2874 38.2763 19.5719C37.9566 18.9755 37.1975 18.6575 36.758 18.1407C36.2785 17.5841 36.3185 16.8287 36.5582 16.3914C36.4783 16.9878 36.9178 17.4648 37.5171 17.7034C38.1964 17.9419 38.7158 17.7829 39.3151 18.0612C39.9943 18.4985 39.6747 19.4923 40.1541 19.9296C40.5936 20.2477 41.7123 19.8104 42.6313 20.6055C43.5902 21.4006 45.7078 23.1101 46.5868 23.8257C48.2249 25.1376 49.903 23.6269 49.3436 22.0764C51.0217 23.0306 51.2215 25.7737 49.8231 26.7278C51.1416 27.0458 53.4989 26.4098 53.4989 24.581C53.4989 23.4281 52.4201 22.5933 51.7009 22.474C54.4178 22.2355 56.7352 24.1039 56.7352 26.4893C56.6553 28.9143 54.1781 30.8226 51.3813 30.4648ZM42.4315 25.5749C42.5114 25.6544 42.5514 25.6942 42.6313 25.7737C41.1929 28.7156 38.476 32.4525 33.3219 32.4525C31.4441 32.4525 29.766 31.7767 28.5674 30.9021C28.1279 30.5841 27.7683 30.2263 27.4886 29.8287C27.2888 29.5902 27.129 29.3914 26.9292 29.1529C26.6895 28.8348 26.4897 28.8348 26.3699 29.0336C26.1301 29.3914 26.5696 30.5443 26.5696 30.5443C22.4943 26.7278 24.5719 21.1223 24.6518 20.8838C24.8915 20.1682 24.6518 20.0489 24.4121 20.1682C24.0525 20.2874 23.613 20.8838 23.613 20.8838C23.9327 17.4648 27.089 15.3976 27.089 15.3976L27.169 15.4771C27.5285 16.0336 26.9692 16.6697 26.9292 18.8165C27.5285 17.9816 29.8859 16.3517 31.2043 15.8746C30.7648 16.4312 30.4053 17.1865 30.4053 18.3394C30.4053 18.3394 31.3642 17.2661 32.5628 17.2661C32.8824 17.2661 33.1621 17.3456 33.4018 17.4648C28.847 21.8777 30.7648 27.3639 34.6005 27.3639C36.758 27.3639 38.9155 24.9786 39.8345 23.3486C40.5137 23.9449 41.6324 24.8991 42.4315 25.5749Z" fill="white"/>
</svg>
