<svg width="66" height="65" viewBox="0 0 66 65" fill="none" xmlns="http://www.w3.org/2000/svg">
<path d="M52.7228 27.118C48.4 26.4915 41.8386 29.4672 38.4421 33.6957C39.1368 30.8767 42.1474 26.2566 45.8526 24.1424C45.8526 24.1424 44 26.4915 44.7719 26.8831C45.9298 27.5095 48.9403 22.6545 52.8772 22.4979C52.8772 22.4979 49.9439 23.9074 50.5614 25.0037C51.0246 25.7085 53.0316 24.064 56.3509 24.064C60.5193 24.064 64.2246 26.6481 66 28.6841C63.0667 27.8227 57.6631 29.3105 56.0421 30.72C53.5719 28.8407 48.8631 29.0756 46.1614 32.2862C42.7649 36.2014 40.6807 40.7432 40.1404 42.1527C38.9825 41.213 37.9017 40.3517 37.207 39.8035C36.5895 39.3337 36.0491 39.0988 35.4316 38.8638C38.6737 34.2438 45.1579 27.4312 52.7228 27.118ZM7.48771 13.8843C7.02455 8.32459 9.57193 5.27067 10.7298 4.01778C13.2772 1.27707 16.7509 -0.210741 22 0.0241766C30.1053 0.494011 34.0421 6.13203 34.0421 12.1616C34.0421 15.3721 32.4211 19.6006 30.1053 22.263C29.9509 22.1064 29.7193 21.8715 29.6421 21.7932C28.0982 20.3837 25.9368 18.5826 24.5474 16.4684C27.3263 12.3182 26.1684 5.89711 21.1509 5.89711C17.986 5.89711 15.4386 9.18596 16.5193 13.1796C16.0561 14.9806 15.8246 17.3298 16.1333 19.0525C12.5053 17.1731 11.3474 14.6674 10.6526 12.4748C9.72631 14.3541 9.10876 16.9382 9.8035 19.444C9.95788 19.6789 7.87367 17.7996 7.48771 13.8843ZM9.57193 23.9075C9.18596 25.2387 4.47718 26.6482 2.1614 28.9973C5.63508 28.2926 7.25613 28.8407 7.87367 30.3285C8.25963 31.4248 7.71929 32.8343 7.48771 34.4787C8.6456 33.1475 12.5824 30.4851 15.5158 29.8587C14.821 29.6238 13.0456 29.2322 12.3509 29.2322C14.4351 26.7265 19.0667 25.9434 21.614 26.4915C19.993 26.3349 16.7509 27.3529 15.4386 28.3709C16.5965 28.6058 17.6772 28.8407 18.6035 29.2322C17.0596 29.8587 15.1298 31.738 14.4351 33.6957C16.4421 32.2862 20.4561 32.5994 21.1509 35.575C21.614 37.611 20.2246 39.3337 19.5298 39.7252C20.1474 39.8818 21.5368 39.7252 22.0772 39.3337C21.8456 40.195 20.6877 41.6046 19.8386 41.8395C21.9228 41.8395 24.9333 40.43 25.7825 38.394C25.7825 38.394 24.4702 38.8638 23.9298 38.2374C23.3123 37.611 24.1614 35.0269 24.1614 35.0269C24.1614 35.0269 23.3123 36.1231 22.6175 35.4967C21.9228 34.7919 22.8491 32.4428 23.2351 31.9729C22.5403 31.738 20.6877 31.5031 19.8386 31.5814C22.1544 30.72 27.4035 30.2502 27.9439 31.3465C28.407 32.2079 27.2491 33.8523 27.2491 33.8523C28.1754 33.6957 30.8772 33.8523 31.8035 34.9486C32.7298 36.1231 32.1895 37.6893 32.1895 37.6893C34.2737 36.593 36.1263 33.3041 35.6632 30.0153C35.4316 30.72 34.5053 31.8163 33.579 32.0513C33.7333 30.955 32.8842 30.4068 32.1895 30.1719C32.5754 28.136 31.7263 25.5519 28.793 22.7329C26.3228 20.2271 21.6912 16.9382 21.9228 12.6314C21.2281 13.5711 20.6105 16.3118 21.3052 17.7996C23.3123 20.1488 27.5579 22.7328 28.6386 26.7264C26.786 22.0281 17.7544 18.3477 18.0632 11.9267C16.9053 13.1012 16.2105 17.7213 17.1368 20.0705C18.9123 21.1667 20.3789 22.8895 20.6105 24.5339C18.9895 20.7752 12.3509 20.0705 10.4982 15.607C10.0351 17.2515 10.2667 19.2874 11.193 20.5403C11.193 20.5403 9.57193 19.9139 6.09824 20.0705C7.33333 20.462 9.8035 22.5763 9.57193 23.9075ZM28.3298 29.3105C26.3228 29.3105 25.7825 27.7444 25.3193 26.1C27.6351 27.118 28.3298 29.3105 28.3298 29.3105ZM53.6491 60.0064C55.0386 61.3376 58.4351 62.2773 60.1333 61.4159C59.0526 63.2953 54.1895 65.8793 49.7123 64.7047C45.3895 63.5302 43.4596 59.38 43.4596 56.7176C41.3754 58.8318 41.9158 62.1207 43.4596 63.5302C41.8386 63.0603 39.2912 61.2593 38.8281 58.1271C38.4421 55.3864 39.986 52.2541 37.207 49.7484C35.586 48.1822 32.8842 46.068 31.2632 44.8151C27.7895 42.0744 29.0246 39.9601 28.3298 38.5506C27.7123 37.376 26.2456 36.7496 25.3965 35.7316C24.4702 34.6353 24.5474 33.1475 25.0105 32.2862C24.8561 33.4607 25.7053 34.4004 26.8632 34.8703C28.1754 35.3401 29.1789 35.0269 30.3368 35.575C31.6491 36.4364 31.0316 38.394 31.9579 39.2554C32.807 39.8818 34.9684 39.0205 36.7438 40.5866C38.5965 42.1527 42.6877 45.5198 44.386 46.9293C47.5509 49.5134 50.793 46.5378 49.7123 43.4839C52.9544 45.3632 53.3403 50.7663 50.6386 52.6457C53.1859 53.2721 57.7403 52.0192 57.7403 48.4172C57.7403 46.1463 55.6561 44.5019 54.2667 44.267C59.5158 43.7971 63.993 47.4775 63.993 52.1758C63.8386 56.9525 59.0526 60.7112 53.6491 60.0064ZM36.3579 50.3748C36.5123 50.5314 36.5895 50.6097 36.7438 50.7663C33.9649 56.561 28.7158 63.9217 18.7579 63.9217C15.1298 63.9217 11.8877 62.5905 9.57193 60.8678C8.7228 60.2413 8.02806 59.5366 7.48771 58.7535C7.10174 58.2837 6.79297 57.8922 6.40701 57.4223C5.94385 56.7959 5.55789 56.7959 5.32631 57.1874C4.86315 57.8922 5.71228 60.163 5.71228 60.163C-2.16141 52.6457 1.85261 41.6046 2.007 41.1347C2.47016 39.7252 2.00702 39.4903 1.54386 39.7252C0.849124 39.9601 0 41.1347 0 41.1347C0.617544 34.4004 6.71578 30.3285 6.71578 30.3285L6.87017 30.4851C7.56491 31.5814 6.4842 32.8343 6.40701 37.0628C7.5649 35.4184 12.1193 32.2079 14.6667 31.2682C13.8175 32.3645 13.1228 33.8523 13.1228 36.1231C13.1228 36.1231 14.9754 34.0089 17.2912 34.0089C17.9088 34.0089 18.4491 34.1655 18.9123 34.4004C10.1123 43.0924 13.8175 53.8986 21.2281 53.8986C25.3965 53.8986 29.5649 49.2002 31.3403 45.9897C32.6526 47.1643 34.814 49.0436 36.3579 50.3748Z" fill="white"/>
</svg>
