<svg width="310" height="35" viewBox="0 0 310 35" fill="none" xmlns="http://www.w3.org/2000/svg">
<path d="M309.5 14.308C309.5 17.2624 307.638 19.7556 304.324 19.7556C301.016 19.7556 299.155 17.2624 299.155 14.308C299.155 11.3608 301.016 8.87475 304.324 8.87475C307.638 8.88196 309.5 11.3608 309.5 14.308ZM304.324 18.6387C306.829 18.6387 308.247 16.7291 308.247 14.308C308.247 11.894 306.836 9.99166 304.324 9.99166C301.833 9.99166 300.421 11.9012 300.407 14.308C300.414 16.7363 301.826 18.6387 304.324 18.6387ZM305.583 15.0718C307.521 14.6178 307.12 11.5337 304.767 11.5337H302.227V17.075H303.632V15.36H304.123L305.389 17.0822H306.898V16.7652L305.583 15.0718ZM304.767 12.8524C305.597 12.8524 305.597 14.1206 304.767 14.1206H303.639V12.8524H304.767ZM177.009 27.7829C177.009 30.3266 174.58 32.3082 171.826 31.9047C172.525 32.5892 174.227 33.0504 175.134 32.6253C174.615 33.5981 172.131 34.9816 169.778 34.3331C167.577 33.7206 166.615 31.5372 166.56 30.1465C165.522 31.2273 165.806 32.9928 166.546 33.6845C165.688 33.4539 164.394 32.5244 164.179 30.8598C163.993 29.4331 164.761 27.7973 163.328 26.4859C162.47 25.7004 161.169 24.5835 160.325 23.8918C158.553 22.4506 159.225 21.3913 158.83 20.6275C158.526 20.0366 157.785 19.7124 157.336 19.1719C156.886 18.6315 156.906 17.8316 157.156 17.3705C157.079 18.0118 157.522 18.4946 158.111 18.6963C158.761 18.9197 159.315 18.7324 159.868 19.071C160.539 19.4746 160.228 20.5627 160.712 20.9446C161.148 21.2832 162.235 20.8293 163.162 21.6075C164.096 22.3857 166.179 24.1944 167.079 24.9654C168.691 26.349 170.359 24.7709 169.805 23.1856C171.445 24.1944 171.625 27.0263 170.262 28.0135C171.549 28.3162 173.867 27.7181 173.867 25.7797C173.867 24.5907 172.816 23.7549 172.068 23.6251C174.705 23.3657 177.009 25.2969 177.009 27.7829ZM149.294 13.0037C149.454 12.348 148.201 11.2239 147.737 11.0077C149.454 10.9356 150.312 11.2743 150.312 11.2743C149.862 10.5825 149.717 9.53048 149.973 8.6946C150.914 11.0365 154.263 11.4112 155.093 13.3568C154.976 12.5137 154.215 11.5769 153.336 11.0293C152.858 9.75387 153.218 7.40475 153.792 6.75623C153.592 10.1358 158.221 12.0669 159.183 14.5241C158.616 12.42 156.464 11.0942 155.432 9.83313C155.093 8.99725 155.356 7.5849 155.723 7.10211C155.612 9.36475 157.958 11.1302 159.218 12.3912C160.692 13.8828 161.114 15.1943 160.913 16.2752C161.238 16.3616 161.681 16.6931 161.605 17.248C162.076 17.1327 162.56 16.5706 162.671 16.2247C162.899 17.9037 161.951 19.6835 160.892 20.2096C160.892 20.2096 161.183 19.4097 160.692 18.7972C160.214 18.1919 158.858 18.1847 158.401 18.2208C158.401 18.2208 158.969 17.3488 158.74 16.9093C158.463 16.3688 155.813 16.6066 154.623 17.0534C155.024 17.0102 155.986 17.1183 156.318 17.2624C156.131 17.5506 155.647 18.7684 155.993 19.1359C156.318 19.4674 156.74 18.8909 156.74 18.8909C156.74 18.8909 156.325 20.224 156.623 20.5338C156.92 20.8365 157.557 20.6203 157.557 20.6203C157.163 21.6652 155.619 22.3857 154.54 22.3857C154.927 22.256 155.557 21.5427 155.654 21.1175C155.37 21.2616 154.637 21.3481 154.346 21.2977C154.699 21.1535 155.398 20.2096 155.176 19.1647C154.858 17.6299 152.803 17.4353 151.772 18.1775C152.104 17.1471 153.107 16.1815 153.889 15.8644C153.433 15.6987 152.893 15.5546 152.318 15.4465C152.976 14.8844 154.63 14.4305 155.467 14.4737C154.187 14.1278 151.834 14.553 150.761 15.8788C151.101 15.8788 151.993 16.0518 152.332 16.1671C150.851 16.4481 148.845 17.8749 148.256 18.5522C148.416 17.6659 148.651 16.9093 148.45 16.3761C148.166 15.6266 147.288 15.3096 145.537 15.6843C146.713 14.4377 149.128 13.6739 149.294 13.0037ZM159.432 16.2536L159.273 15.7059C159.259 15.6483 158.851 14.3152 157.481 13.7964L156.733 13.5081L156.948 14.308C157.135 14.9925 157.481 16.2536 158.879 16.2536H159.432ZM106.598 18.0406C106.598 23.3009 102.577 27.2641 97.242 27.2641C91.872 27.2641 87.9761 23.4378 87.9761 18.1559C87.9761 12.7947 91.8513 8.91078 97.1936 8.91078C102.55 8.91078 106.598 12.838 106.598 18.0406ZM101.671 18.0406C101.671 15.1222 99.8993 13.2415 97.152 13.2415C94.5155 13.2415 92.8824 15.1294 92.8824 18.1631C92.8824 21.0959 94.6124 22.9838 97.2904 22.9838C99.8647 22.9838 101.671 20.9518 101.671 18.0406ZM19.274 18.0334C19.274 20.1015 18.6236 22.1407 17.4887 23.6179C16.9904 24.2737 16.3745 24.8574 15.6549 25.369C13.9595 26.5507 12.3955 26.9903 9.88356 26.9903H0.942882L1.32348 26.7597C1.32348 26.7525 2.43069 26.0823 2.94277 25.7581C3.44101 25.4482 3.64169 25.1456 3.64169 24.0431V13.7531C3.64169 12.6218 3.34413 12.3119 2.92201 11.9949C0.714521 10.3159 0.52768 8.39196 0.52076 8.31269L0.5 8.05328L0.707601 8.1974C0.714521 8.2046 1.44804 8.6946 2.26461 8.88916C3.20573 9.11254 4.49978 9.15578 7.21935 9.15578H10.6586V9.17019C12.3748 9.24225 13.6273 9.56651 14.866 10.2439C17.6271 11.7499 19.274 14.6611 19.274 18.0334ZM14.3055 18.0766C14.3055 15.1583 12.8592 13.4793 10.3403 13.4793H8.41651V22.6452H10.3403C12.8592 22.6524 14.3055 20.9806 14.3055 18.0766ZM133.012 15.569L132.32 15.3961L132.257 15.3816C130.631 14.9781 129.565 14.6611 129.565 13.9405C129.565 13.6955 129.628 13.5009 129.773 13.364C130.057 13.0614 130.659 12.8956 131.455 12.8956C131.586 12.8956 131.724 12.9028 131.863 12.91H131.911C131.939 12.91 131.967 12.9172 131.994 12.9172C133.468 13.0542 135.219 13.7171 137.025 14.9637L136.748 9.70342L136.416 9.58813L136.354 9.56651C136.326 9.5521 136.139 9.48725 135.572 9.35754C135.233 9.27828 133.496 8.88916 132.451 8.8099C132.112 8.78107 131.78 8.76666 131.462 8.76666C127.656 8.76666 125.42 10.6474 125.185 14.0702C125.067 15.778 125.87 17.4497 127.24 18.3144C128.458 19.0855 130.278 19.6691 131.607 20.0943L131.911 20.188C132.742 20.4546 133.697 20.9878 133.565 22.0254C133.496 22.5659 133.295 23.1496 131.731 23.1496C131.503 23.1496 131.254 23.1352 130.984 23.1135C129.905 23.0127 128.645 22.3713 127.247 21.2112C127.192 21.1607 127.143 21.1247 127.116 21.1031L126.251 20.4185L125.365 19.7196L125.718 26.385L126.057 26.5003L126.112 26.5219C126.126 26.5219 126.306 26.5868 126.887 26.7237C127.462 26.8534 129.351 27.1993 130.313 27.2713C130.624 27.2929 130.943 27.3073 131.254 27.3073C135.42 27.3073 138.16 25.1528 138.243 21.8165C138.333 18.6099 136.569 16.5058 133.012 15.569ZM83.2289 22.6524H79.3468V20.0438H82.9798C83.4573 20.0366 83.9694 20.0294 84.26 20.1807C84.5991 20.3537 84.8413 20.714 84.8413 20.7212L85.0143 20.995L85.0074 15.288L84.8621 15.3744C84.8551 15.3744 84.6268 15.5258 84.433 15.6122C84.26 15.6843 84.1424 15.7203 83.3604 15.7203H79.3399V13.4937H83.3673C84.3984 13.4937 84.6268 13.5874 85.215 14.0197L86.2115 14.8124L85.6855 9.16298H71.9908L72.3576 9.39357C72.3645 9.40078 73.2987 9.99166 73.8592 10.388C74.3782 10.7483 74.572 10.9933 74.572 12.1462V24.0287C74.572 25.196 74.399 25.405 73.8731 25.7437C73.3471 26.0823 72.2676 26.7309 72.2607 26.7381L71.8732 26.9759H86.0731L87.3463 21.031C87.3463 21.031 86.2045 21.8885 85.8793 22.1047C85.2496 22.5082 84.7583 22.6524 83.2289 22.6524ZM56.6007 9.17019H46.9057L47.2725 9.40078C47.2794 9.40798 48.2136 9.99887 48.7741 10.3952C49.2931 10.7555 49.4869 10.9933 49.4869 12.1534V16.4697L42.3316 9.17019H31.0796C30.7474 9.17019 30.3876 9.38637 30.3738 9.39357L30.263 9.46563L30.3392 9.58092C30.3392 9.58092 30.5883 9.93401 30.7336 10.1718C30.8443 10.352 30.9066 10.4745 30.9274 10.9572V20.0582L30.9343 20.1303C30.9066 22.0471 30.09 23.0199 28.36 23.0199C26.6023 23.0199 25.7097 22.011 25.7097 20.0438L25.7027 10.9644C25.7166 10.4889 25.7789 10.3664 25.8896 10.179C26.0349 9.94122 26.284 9.58813 26.2909 9.58813L26.3671 9.47284L26.2494 9.40078C26.2356 9.39357 25.8757 9.1774 25.5436 9.1774H18.3468L18.7135 9.40798C18.7204 9.41519 19.6477 10.0061 20.2221 10.4024C20.7411 10.7555 20.9348 11.0005 20.9348 12.1606V19.5106C20.9348 21.1319 21.1217 22.429 21.4746 23.2721C21.7306 23.8701 22.1251 24.4466 22.6856 25.0375C24.1527 26.5435 26.0072 27.2785 28.3462 27.2785C31.5986 27.2785 34.1452 25.7509 35.1624 23.1928C35.5569 22.1984 35.6883 21.3121 35.6883 19.6547V12.1606C35.6883 11.0005 35.889 10.7627 36.4011 10.4024C36.7125 10.1934 37.1208 9.92681 37.4322 9.71784C37.7228 9.9196 38.0965 10.179 38.3595 10.3808C38.8577 10.7555 39.093 11.1374 39.093 12.2975V24.0431C39.093 25.196 38.8923 25.441 38.3941 25.7581C37.8474 26.104 36.7817 26.7453 36.7817 26.7525L36.3942 26.9903H46.1168L45.7224 26.7525C45.7085 26.7453 44.629 26.0968 44.11 25.7581C43.6256 25.441 43.4111 25.1744 43.4111 24.0431V16.9597L53.805 27.5596V12.1462C53.805 11.0005 53.9918 10.7627 54.5177 10.388C55.0921 9.98445 56.1509 9.40798 56.1647 9.40078L56.6007 9.17019ZM125.939 9.17019H116.244L116.604 9.40078C116.618 9.40798 117.545 9.99887 118.106 10.3952C118.625 10.7555 118.819 10.9933 118.819 12.1534V16.4697L111.663 9.1774H105.968L106.307 9.40798C106.314 9.41519 107.186 10.0061 107.691 10.388C108.189 10.7627 108.425 11.1446 108.425 12.3047V24.0503C108.425 25.2032 108.224 25.4482 107.726 25.7653C107.179 26.1112 106.12 26.7525 106.107 26.7597L105.712 26.9975H115.442L115.047 26.7597C115.033 26.7525 113.961 26.104 113.435 25.7653C112.944 25.4482 112.736 25.1816 112.736 24.0503V16.9669L123.13 27.5668V12.1462C123.13 11.0005 123.31 10.7627 123.843 10.388C124.417 9.98445 125.476 9.40798 125.49 9.40078L125.939 9.17019ZM71.9008 25.9454C71.9008 25.9382 71.6448 25.5851 71.4995 25.3473C71.368 25.1384 71.2919 24.9582 71.2919 24.2232V19.4169C71.2919 18.6891 71.3542 18.5522 71.4856 18.336C71.631 18.0983 71.8801 17.7452 71.8801 17.738L71.9631 17.6227L71.8386 17.5506C71.8247 17.5434 71.5064 17.3705 71.1466 17.3272V17.3344C71.0497 17.3272 63.8598 17.3272 63.8598 17.3272L64.2265 17.5578C64.2265 17.5578 65.2991 18.2424 65.7766 18.5522C66.2472 18.8621 66.4894 19.2152 66.4894 20.2672V22.8829C65.9496 23.0631 65.3891 23.1424 64.7248 23.1424C61.7907 23.1424 60.3029 21.4922 60.3029 18.2424C60.3029 15.1438 61.936 13.364 64.7732 13.364C66.5517 13.364 68.4201 13.7964 70.7037 15.5834L70.6898 15.4537L70.1639 10.3015L70.1293 9.9196L69.7695 9.83313L69.4235 9.75387C67.9011 9.38637 67.3059 9.28548 66.3994 9.17019C65.8666 9.10534 65.5759 9.06931 64.9047 9.06931H64.6141C59.258 9.06931 55.3689 12.9749 55.3689 18.3433C55.3689 23.6324 59.2787 27.4803 64.6625 27.4803C65.6036 27.4803 67.4167 27.3001 68.5585 27.0551C68.773 27.0047 68.8976 26.9759 69.0705 26.9326C69.1052 26.9182 69.1467 26.911 69.1813 26.9038C69.8248 26.7453 70.4822 26.5723 71.1396 26.3634L71.977 26.0896L71.9008 25.9454ZM199.257 18.0334C199.257 20.1015 198.607 22.1407 197.472 23.6179C196.973 24.2737 196.358 24.8574 195.638 25.369C193.942 26.5507 192.379 26.9903 189.867 26.9903H180.926L181.306 26.7597C181.306 26.7525 182.414 26.0823 182.926 25.7581C183.424 25.4482 183.625 25.1456 183.625 24.0431V13.7531C183.625 12.6218 183.327 12.3119 182.898 11.9949C180.691 10.3159 180.511 8.39196 180.504 8.31269L180.483 8.05328L180.691 8.1974C180.698 8.2046 181.431 8.6946 182.241 8.88916C183.182 9.11254 184.476 9.15578 187.195 9.15578H190.635V9.17019C192.351 9.24225 193.603 9.56651 194.842 10.2439C197.603 11.7499 199.257 14.6611 199.257 18.0334ZM194.282 18.0766C194.282 15.1583 192.835 13.4793 190.316 13.4793H188.393V22.6452H190.316C192.835 22.6524 194.282 20.9806 194.282 18.0766ZM293.577 15.569L292.885 15.3961L292.823 15.3816C291.197 14.9781 290.131 14.6611 290.131 13.9405C290.131 13.6955 290.2 13.5009 290.338 13.3568C290.629 13.0542 291.217 12.8884 292.02 12.8884C292.151 12.8884 292.29 12.8956 292.428 12.9028H292.484C292.511 12.91 292.539 12.91 292.567 12.9172C294.041 13.0542 295.798 13.7171 297.598 14.9637L297.314 9.70342L296.982 9.58813L296.919 9.56651C296.892 9.55931 296.705 9.48725 296.144 9.36475C295.805 9.28548 294.068 8.89637 293.023 8.8171C292.684 8.78828 292.352 8.78107 292.034 8.78107C288.221 8.78107 285.993 10.6618 285.757 14.0846C285.64 15.7924 286.449 17.4641 287.806 18.3288C289.024 19.0999 290.844 19.6835 292.172 20.1087L292.477 20.2024C293.307 20.469 294.269 21.0022 294.138 22.0399C294.068 22.5803 293.868 23.164 292.304 23.164C292.075 23.164 291.833 23.1496 291.556 23.1279C290.477 23.0271 289.217 22.3857 287.82 21.2256C287.764 21.1752 287.716 21.1391 287.688 21.1175L286.823 20.433L285.93 19.734L286.283 26.3994L286.615 26.5147L286.678 26.5363C286.692 26.5363 286.878 26.6012 287.453 26.7381C288.027 26.875 289.916 27.2137 290.885 27.2857C291.197 27.3073 291.515 27.3218 291.826 27.3218C295.985 27.3218 298.732 25.1672 298.815 21.8309C298.898 18.6099 297.127 16.5058 293.577 15.569ZM267.156 18.055C267.156 23.3153 263.136 27.2785 257.8 27.2785C252.431 27.2785 248.535 23.445 248.535 18.1703C248.535 12.8092 252.41 8.91798 257.752 8.91798C263.115 8.92519 267.156 12.8524 267.156 18.055ZM262.236 18.055C262.236 15.1366 260.465 13.2559 257.711 13.2559C255.074 13.2559 253.434 15.1366 253.434 18.1703C253.434 21.1031 255.171 22.9982 257.849 22.9982C260.43 22.9982 262.236 20.9662 262.236 18.055ZM232.051 25.7941L233.497 26.9759H224.55C224.55 26.9759 225.311 26.2193 225.65 25.8446C225.948 25.5203 226.1 25.196 225.878 24.6484C225.83 24.5115 225.726 24.2232 225.602 23.8557H219.401C219.277 24.2088 219.173 24.4971 219.111 24.6484C218.861 25.2897 218.917 25.4698 219.263 25.8157C219.643 26.1976 220.578 26.9759 220.578 26.9759H211.194L206.89 21.5715L206.883 21.5571L206.876 21.5427C206.405 20.8725 206.052 20.4978 205.727 20.3177C205.642 20.2804 205.554 20.2514 205.464 20.2312V24.0287C205.464 25.1456 205.665 25.3473 206.177 25.7509C206.696 26.1616 208.212 26.9759 208.212 26.9759H198.205C198.205 26.9759 199.735 26.0823 200.212 25.7509C200.655 25.441 200.918 25.1672 200.918 24.0359V12.175C200.918 11.0725 200.689 10.7339 200.205 10.424C199.707 10.0997 198.697 9.43681 198.697 9.43681L198.344 9.19901H206.488C208.052 9.22063 208.675 9.27107 209.547 9.5449C211.644 10.1718 212.938 11.9877 212.938 14.2791C212.938 15.3456 212.647 16.3328 212.108 17.1399C211.699 17.7668 211.159 18.2856 210.537 18.6531C212.329 21.1463 213.741 22.9982 214.613 23.9926C214.668 23.8846 219.796 11.0077 219.796 11.0077C219.81 10.914 219.823 10.8347 219.823 10.7627C219.823 10.669 219.823 10.5609 219.567 10.3231L218.356 9.1774H225.096C225.096 9.1774 230.709 23.9999 230.75 24.0935H230.743C230.902 24.461 230.944 24.5331 231.103 24.7925C231.331 25.1528 231.414 25.2753 232.051 25.7941ZM208.253 14.2503C208.253 13.3352 207.686 12.7299 206.032 12.7227L205.457 12.7299V16.8805C205.7 16.8877 205.935 16.8877 206.025 16.8877C207.111 16.8805 208.253 16.6283 208.253 14.2503ZM224.155 19.6331L222.612 15.2519L220.937 19.6331H224.155ZM286.505 9.17019H276.81L277.177 9.40078C277.183 9.40798 278.111 9.99886 278.685 10.388C279.204 10.7483 279.398 10.9933 279.398 12.1462V16.4625L272.243 9.17019H266.547L266.886 9.40078C266.893 9.40798 267.765 9.99886 268.27 10.3808C268.769 10.7555 269.004 11.1374 269.004 12.2975V24.0431C269.004 25.196 268.803 25.441 268.312 25.7581C267.765 26.104 266.7 26.7453 266.693 26.7525L266.305 26.9903H276.028L275.64 26.7525C275.626 26.7453 274.547 26.0968 274.028 25.7581C273.544 25.441 273.329 25.1744 273.329 24.0431V16.9597L283.723 27.5596V12.1462C283.723 11.0005 283.91 10.7627 284.436 10.388C285.01 9.98445 286.069 9.40798 286.083 9.40078L286.505 9.17019ZM247.164 25.1888C247.033 24.9799 246.957 24.7925 246.957 24.0647V19.2584C246.957 18.5306 247.019 18.3937 247.151 18.1775C247.296 17.9397 247.545 17.5866 247.545 17.5866L247.628 17.4713L247.503 17.3993C247.49 17.3921 247.171 17.2191 246.811 17.1759V17.1831C246.715 17.1759 239.525 17.1759 239.525 17.1759L239.891 17.4137C239.891 17.4137 240.964 18.091 241.448 18.4081C241.919 18.7108 242.154 19.0638 242.154 20.1231V22.7388C241.615 22.919 241.054 22.9982 240.39 22.9982C237.456 22.9982 235.968 21.3481 235.968 18.091C235.968 14.9925 237.594 13.2127 240.438 13.2127C242.217 13.2127 244.092 13.6378 246.369 15.4249L246.355 15.2952L245.829 10.143L245.787 9.76107L245.434 9.6746L245.088 9.58813C243.566 9.22063 242.971 9.12696 242.064 9.00446C241.531 8.9396 241.241 8.90357 240.57 8.90357H240.279C234.923 8.90357 231.034 12.8019 231.034 18.1775C231.034 23.4666 234.944 27.3146 240.327 27.3146C241.269 27.3146 243.082 27.1344 244.223 26.8822C244.438 26.8318 244.562 26.8029 244.735 26.7597L244.846 26.7381C245.49 26.5796 246.147 26.4066 246.805 26.1976L247.642 25.9238L247.545 25.7797C247.559 25.7797 247.31 25.4266 247.164 25.1888ZM171.314 14.6827C167.626 14.87 164.47 18.1199 162.837 20.4257C163.128 20.5266 163.425 20.6707 163.716 20.9085C164.055 21.1968 164.56 21.6219 165.093 22.0831C165.529 21.0743 166.518 19.0422 168.027 17.2408C169.404 15.5978 171.812 15.4393 173.072 16.4409C173.881 15.6771 176.684 14.9565 178.158 15.3961C177.265 14.38 175.355 13.0181 173.245 13.0181C171.508 13.0181 170.525 13.9044 170.276 13.5081C169.958 12.9965 171.452 12.2399 171.452 12.2399C169.397 12.3264 167.909 14.8412 167.287 14.5314C166.913 14.344 167.84 13.1262 167.84 13.1262C165.965 14.2647 164.387 16.6643 164.062 18.1343C165.778 15.9293 169.134 14.3512 171.314 14.6827ZM160.104 24.8574C159.155 26.5291 157.176 28.6837 155.156 28.6837C151.44 28.6837 149.571 23.2144 153.716 18.7252C153.481 18.6459 153.253 18.6387 153.177 18.6387C152.824 18.6387 152.485 18.7324 152.256 18.8981L150.422 20.541L150.941 17.8677C150.976 17.774 151.004 17.6875 151.045 17.5938C150.125 18.0838 149.232 18.754 148.886 19.1431L147.225 21.0238L147.391 18.3649L147.502 17.7812C147.585 17.3705 147.689 16.8516 147.627 16.6859C147.602 16.635 147.567 16.5906 147.523 16.5562C146.755 17.1759 144.658 19.0999 144.409 21.9606C144.409 21.9606 144.817 21.3625 145.17 21.2184C145.405 21.1247 145.606 21.2472 145.385 21.9606C145.302 22.2416 143.26 27.9775 147.267 31.9551C147.267 31.9551 146.824 30.7878 147.094 30.4347C147.225 30.2617 147.391 30.2473 147.627 30.5572C147.793 30.795 147.973 31.0256 148.166 31.249V31.2562C148.499 31.6525 148.858 32.02 149.26 32.337C150.457 33.2089 152.083 33.9151 153.938 33.9151C158.872 33.9151 161.488 30.3987 162.948 27.4154C162.878 27.329 162.83 27.2425 162.74 27.1632C162.007 26.4787 160.927 25.5419 160.104 24.8574ZM149.011 10.1214C148.942 9.5449 148.976 8.95401 149.142 8.42078L149.862 6.07888L150.768 8.34152C151.031 8.99725 151.585 9.48004 152.249 9.9196C152.194 8.83152 152.381 7.62093 152.754 6.79226C152.678 5.04123 153.841 3.72977 155.232 3.72977C157.612 3.72977 158.249 6.7274 157.142 8.87475C157.654 9.68181 158.436 10.424 159.128 11.0725C159.377 11.3031 159.605 11.5265 159.813 11.7283C159.875 11.8003 159.91 11.858 159.979 11.9228C161.01 10.4672 161.771 8.42799 161.771 6.89314C161.771 3.70815 159.785 0.753745 155.647 0.515952C153.024 0.371834 151.253 1.21492 149.931 2.61286C149.336 3.24697 148.007 4.85388 148.256 7.75784C148.353 8.86034 148.706 9.62416 149.011 10.1214Z" fill="white"/>
</svg>
