<svg width="682" height="410" viewBox="0 0 682 410" fill="none" xmlns="http://www.w3.org/2000/svg">
<path d="M26.6671 1.46644C18.8005 3.06644 11.0671 8.53311 5.73379 16.3998C-1.73288 27.5998 -1.73288 41.7331 5.73379 52.9331C11.3338 61.1998 18.9338 66.3998 28.0005 67.9998C32.9338 68.9331 140.4 69.1998 346 69.0664C627.334 68.6664 657.067 68.3998 661.334 66.5331C668.267 63.3331 674.267 57.8664 678.4 50.7998C681.467 45.5998 682 43.1998 682 34.6664C682 26.1331 681.467 23.7331 678.4 18.5331C674.267 11.4664 668.267 5.99977 661.334 2.79977C657.067 0.799773 627.467 0.666435 344.667 0.533102C168 0.399769 30.0005 0.799773 26.6671 1.46644Z" fill="white"/>
<path d="M127.734 172.533C121.334 174.267 119.6 175.333 112.8 181.2C99.067 193.467 99.7337 217.867 114 230.533C124.934 240.133 105.334 239.333 341.334 239.333C577.334 239.333 557.734 240.133 568.667 230.533C583.6 217.333 583.6 193.333 568.667 180.133C557.734 170.533 576.934 171.333 344 171.067C177.6 170.933 132.667 171.2 127.734 172.533Z" fill="white"/>
<path d="M266.534 342.533C248.001 346.267 235.734 365.067 239.867 383.333C242.001 392.8 248.001 400.667 257.334 405.867L264.667 410H341.334H418.001L425.334 406C449.734 392.533 449.734 359.467 425.334 346L418.001 342L344.667 341.733C304.401 341.733 269.201 342 266.534 342.533Z" fill="white"/>
</svg>
