<svg width="47" height="47" viewBox="0 0 47 47" fill="none" xmlns="http://www.w3.org/2000/svg">
<path d="M30.0286 7.34375H16.9699C14.4175 7.3457 11.9702 8.3605 10.1653 10.1653C8.3605 11.9702 7.3457 14.4175 7.34375 16.9699V30.0286C7.34531 32.5813 8.35994 35.029 10.1648 36.8341C11.9697 38.6393 14.4173 39.6543 16.9699 39.6562H30.0286C32.5812 39.6539 35.0285 38.6388 36.8333 36.8337C38.6381 35.0286 39.6528 32.5812 39.6548 30.0286V16.9699C39.6536 14.4173 38.6391 11.9695 36.834 10.1645C35.029 8.35948 32.5813 7.34492 30.0286 7.34375ZM36.4059 30.0286C36.4055 31.7198 35.7335 33.3417 34.5376 34.5376C33.3417 35.7335 31.7198 36.4055 30.0286 36.4059H16.9699C16.1325 36.4059 15.3033 36.2409 14.5297 35.9204C13.756 35.5999 13.0531 35.1302 12.461 34.5379C11.8689 33.9457 11.3993 33.2427 11.079 32.469C10.7587 31.6953 10.5939 30.866 10.5941 30.0286V16.9699C10.5939 16.1326 10.7587 15.3034 11.079 14.5298C11.3994 13.7561 11.869 13.0532 12.4611 12.4611C13.0532 11.869 13.7561 11.3994 14.5298 11.079C15.3034 10.7587 16.1326 10.5939 16.9699 10.5941H30.0286C31.7195 10.5945 33.3409 11.2663 34.5366 12.462C35.7322 13.6576 36.404 15.2791 36.4044 16.9699L36.4059 30.0286Z" fill="white"/>
<path d="M23.5 15.1458C18.8911 15.1458 15.1458 18.8926 15.1458 23.5C15.1458 28.1075 18.8925 31.8543 23.5 31.8543C28.1075 31.8543 31.8543 28.1075 31.8543 23.5C31.8543 18.8926 28.1089 15.1458 23.5 15.1458ZM23.5 28.6039C22.1464 28.6041 20.8481 28.0666 19.8908 27.1096C18.9335 26.1525 18.3956 24.8544 18.3954 23.5008C18.3952 22.1471 18.9327 20.8489 19.8897 19.8915C20.8468 18.9342 22.1449 18.3963 23.4985 18.3961C24.8522 18.3959 26.1504 18.9335 27.1078 19.8905C28.0651 20.8475 28.603 22.1457 28.6032 23.4993C28.6034 24.8529 28.0658 26.1512 27.1088 27.1085C26.1518 28.0658 24.8536 28.6037 23.5 28.6039ZM31.8719 13.2056C32.2677 13.2059 32.6545 13.3235 32.9835 13.5436C33.3125 13.7636 33.5689 14.0763 33.7202 14.4421C33.8715 14.8078 33.9111 15.2102 33.8338 15.5984C33.7565 15.9866 33.5659 16.3432 33.286 16.623C33.0061 16.9029 32.6495 17.0936 32.2613 17.1708C31.8731 17.2481 31.4707 17.2086 31.105 17.0573C30.7392 16.9059 30.4266 16.6496 30.2065 16.3206C29.9864 15.9916 29.8688 15.6048 29.8685 15.2089C29.8685 14.1044 30.6176 13.2056 31.8719 13.2056Z" fill="white"/>
</svg>
