<svg width="200" height="200" viewBox="0 0 200 200" fill="none" xmlns="http://www.w3.org/2000/svg">
<g clip-path="url(#clip0_194_358)">
<path d="M0.15625 22.0312L0.390625 44.0625L33.5938 72.0312C51.875 87.4219 67.4219 100.703 68.2031 101.406C69.5313 102.734 69.375 103.047 64.8438 108.359L60.1563 113.984L55.625 111.875C51.875 110.156 50.0781 109.766 44.5313 109.766C38.6719 109.766 37.2656 110.078 32.8125 112.188C27.6563 114.688 20.3125 120.469 20.3125 122.109C20.3125 122.578 23.9063 126.641 28.2813 131.016L36.3281 139.062L23.4375 151.953L10.5469 164.844H5.3125H0V182.422V200H17.5781H35.1563V194.687V189.453L48.0469 176.562L60.9375 163.672L68.9844 171.719C73.3594 176.094 77.4219 179.688 77.8906 179.688C79.5312 179.688 85.3125 172.344 87.8125 167.187C89.8438 162.734 90.1562 161.25 90.1562 155.469C90.1562 150 89.8438 148.047 88.125 144.375L86.0938 139.922L93.0469 133.984L100 128.047L106.953 133.906L113.984 139.844L111.875 144.375C110.156 148.047 109.844 149.922 109.844 155.469C109.844 161.25 110.156 162.734 112.188 167.187C114.688 172.344 120.469 179.688 122.109 179.688C122.578 179.688 126.641 176.094 131.016 171.719L139.062 163.672L151.953 176.562L164.844 189.453V194.687V200H182.422H200V182.422V164.844H194.688H189.453L176.562 151.953L163.672 139.062L171.719 131.016C176.094 126.641 179.688 122.578 179.688 122.109C179.688 120.547 172.422 114.687 167.578 112.422C159.531 108.672 150.781 108.672 142.891 112.422L139.844 113.906L135.156 108.359C131.016 103.516 130.625 102.656 131.562 101.641C132.188 101.016 147.812 87.8125 166.172 72.3437L199.609 44.0625L199.844 22.0312L200 0L177.969 0.156235L155.938 0.39061L128.203 33.2031C112.969 51.25 100.312 66.0156 100 66.0156C99.6875 66.0156 86.9531 51.25 71.7188 33.2031L44.0625 0.39061L22.0313 0.156235L0 0L0.15625 22.0312ZM84.1406 66.0156C109.219 95.625 130 120.391 130.234 120.938C130.781 122.188 122.734 130.625 121.406 130.312C120.938 130.156 107.578 119.141 91.7188 105.781C75.8594 92.3438 51.4844 71.7969 37.5 60L12.1094 38.5938L11.875 25.1562L11.7188 11.7188L25.1562 11.875L38.5938 12.1094L84.1406 66.0156ZM188.125 25.1562L187.891 38.5938L155.859 65.7812C138.281 80.7031 123.438 92.8906 122.969 92.8906C122.5 92.9688 118.828 89.0625 114.844 84.375L107.656 75.7812L113.438 68.9062C116.641 65.1562 128.828 50.7812 140.469 36.875L161.797 11.7188H175.078H188.281L188.125 25.1562ZM85.3906 115.625C88.2031 117.969 90.5469 120.078 90.5469 120.312C90.625 120.859 79.1406 130.469 78.3594 130.469C77.5781 130.469 69.5312 122.5 69.5312 121.641C69.5312 120.234 78.5156 110.312 79.375 110.781C79.8438 111.094 82.5781 113.281 85.3906 115.625ZM52.5 123.125C53.9063 123.828 59.8438 129.219 65.7812 135.078C75.5469 144.922 76.5625 146.172 77.7344 150.234C79.0625 154.688 78.8281 159.297 77.3438 161.719C76.7188 162.656 72.4219 158.672 57.0312 143.359C46.3281 132.656 37.5 123.594 37.5 123.281C37.5 122.188 42.5781 121.172 46.25 121.484C48.2812 121.641 51.0938 122.344 52.5 123.125ZM159.609 121.953C161.172 122.344 162.5 122.969 162.5 123.281C162.5 123.984 123.984 162.5 123.281 162.5C122.188 162.5 120.938 155.938 121.406 152.891C122.188 147.891 123.984 145.469 133.516 135.703C143.438 125.547 145.703 123.672 149.922 122.188C153.359 120.938 155.781 120.859 159.609 121.953ZM48.8281 151.562L52.6562 155.469L42.1875 166.016L31.6406 176.562L27.5781 172.5L23.4375 168.359L33.75 158.047C39.4531 152.344 44.2969 147.656 44.5313 147.656C44.7656 147.656 46.7188 149.453 48.8281 151.562ZM166.25 158.047L176.562 168.359L172.422 172.5L168.359 176.562L157.812 166.016L147.344 155.469L151.172 151.562C153.281 149.453 155.234 147.656 155.469 147.656C155.703 147.656 160.547 152.344 166.25 158.047ZM19.2969 180.625C21.875 183.203 23.4375 185.391 23.4375 186.484C23.4375 188.203 23.125 188.281 17.5781 188.281H11.7188V182.422C11.7188 176.875 11.7969 176.562 13.4375 176.562C14.5313 176.562 16.7969 178.203 19.2969 180.625ZM188.281 182.422V188.281H182.422C176.875 188.281 176.562 188.203 176.562 186.562C176.562 184.219 184.141 176.562 186.484 176.562C188.203 176.562 188.281 176.875 188.281 182.422Z" fill="white"/>
<path d="M25.3906 25.7813C23.2333 27.9386 23.2333 31.4364 25.3906 33.5938L42.1875 50.3906L58.8281 67.0312C61.0718 69.2749 64.7095 69.2749 66.9531 67.0313C69.2399 64.7444 69.2399 61.0368 66.9531 58.75L50.625 42.4219C43.679 35.4758 37.269 29.3596 33.3268 25.6445C31.1063 23.5521 27.548 23.6239 25.3906 25.7813Z" fill="white"/>
<path d="M149.375 42.4219L133.047 58.75C130.76 61.0368 130.76 64.7444 133.047 67.0313C135.291 69.2749 138.928 69.2749 141.172 67.0313L157.812 50.3906L174.609 33.5938C176.767 31.4364 176.767 27.9386 174.609 25.7813C172.344 23.516 168.643 23.478 166.345 25.7095C162.463 29.4782 156.254 35.5431 149.375 42.4219Z" fill="white"/>
</g>
<defs>
<clipPath id="clip0_194_358">
<rect width="200" height="200" fill="white"/>
</clipPath>
</defs>
</svg>
