<svg width="200" height="200" viewBox="0 0 200 200" fill="none" xmlns="http://www.w3.org/2000/svg">
<path d="M33.5938 26.0937C29.1016 29.5312 13.6719 43.5937 13.125 44.7265C12.5781 45.8984 12.5 51.289 12.5 97.0312C12.5 147.031 12.5 148.125 13.2813 149.57C13.7109 150.43 14.6875 151.484 15.5078 151.992C16.8359 152.812 17.5391 152.93 24.9219 153.203C51.875 154.141 75.3516 160.547 93.2422 171.758C95.4688 173.125 97.8125 174.453 98.4766 174.687C100.586 175.43 102.695 174.883 106.211 172.695C113.125 168.359 123.203 163.828 132.227 161.055C145.625 156.914 156.992 155.039 173.75 154.18C182.383 153.711 183.125 153.594 184.297 152.773C187.109 150.781 186.914 155.078 187.031 99.0234C187.109 62.6953 187.031 48.0468 186.719 46.6015C186.289 44.6874 185.977 44.2968 181.719 40.3124C173.047 32.2265 166.602 26.5234 165.43 25.8593C164.453 25.3124 163.242 25.1953 158.594 25.2343C144.727 25.3515 130.117 29.8437 117.969 37.8124C112.422 41.4453 108.75 44.4531 103.984 49.3359L100 53.4765L95.9766 49.3359C91.3281 44.5312 87.6563 41.5234 82.1484 37.8515C69.8438 29.7265 53.9063 24.9999 39.0625 24.9999C35.1953 25.039 34.8828 25.0781 33.5938 26.0937ZM52.5391 38.7499C68.1641 41.914 81.875 50.5078 92.1094 63.5937L93.75 65.7031V107.422V149.18L91.7188 146.992C82.8906 137.656 69.8047 130 56.9531 126.602C53.5156 125.664 45.5078 124.219 43.9844 124.219C43.8672 124.219 43.75 104.687 43.75 80.8593V37.4609L46.2109 37.6953C47.5391 37.8515 50.3906 38.3203 52.5391 38.7499ZM156.25 80.8203V124.18L154.414 124.414C141.523 126.094 131.016 129.922 120.898 136.562C117.109 139.062 111.094 144.023 108.32 146.992L106.25 149.18V107.578V65.9374L108.086 63.5546C117.07 51.8359 130.352 43.0859 144.609 39.4531C147.656 38.6328 153.555 37.6171 155.391 37.539L156.25 37.4999V80.8203ZM32.1875 133.477C33.5156 135.664 35.1172 136.211 41.5625 136.68C50.6641 137.383 56.7188 138.945 64.4141 142.617C68.1641 144.375 75.2344 148.711 74.9219 149.062C74.8438 149.141 73.3594 148.75 71.6797 148.203C59.1016 144.258 44.0625 141.602 29.8047 140.781L25 140.508V95.5468V50.5468L28.0469 47.8906L31.0547 45.2734L31.25 88.7499C31.4453 130.664 31.4844 132.266 32.1875 133.477ZM172.578 48.3984L175 50.5468V95.5078V140.508L170.234 140.781C155.977 141.602 142.695 143.906 129.102 148.008C126.953 148.633 125.156 149.102 125.078 149.023C124.766 148.711 131.914 144.375 135.586 142.617C143.164 139.023 149.492 137.383 158.047 136.719C164.883 136.211 165.234 136.133 166.563 134.883C168.867 132.773 168.75 135.039 168.75 88.2421C168.75 47.3046 168.789 45.2343 169.453 45.7421C169.805 46.0546 171.211 47.2265 172.578 48.3984Z" fill="white"/>
</svg>
