<svg width="683" height="683" viewBox="0 0 683 683" fill="none" xmlns="http://www.w3.org/2000/svg">
<g clip-path="url(#clip0_625_434)">
<path d="M170.934 2.40005C167.067 3.86671 161.6 6.80005 158.934 8.93338C152.8 13.7334 145.867 23.8667 144 30.4C143.2 33.7334 142.667 121.467 142.667 292.267C142.667 433.733 142.267 549.333 141.734 549.333C141.2 549.333 127.334 535.867 110.8 519.6C83.7338 492.8 79.8671 489.467 72.9338 486.933C57.6005 481.2 40.6671 484 29.0671 494.4C19.8671 502.8 15.7338 511.467 14.9338 524C14.0005 540 17.2005 546.533 33.8671 563.333C75.6005 605.6 142.8 670.533 148 673.6C159.6 680.267 169.334 682.667 185.067 682.667C201.467 682.667 210.934 680.133 222.534 672.933C230.534 667.867 344.134 556.533 348.8 549.067C353.334 541.867 356.4 529.067 355.334 521.467C354 511.333 347.334 499.2 339.867 493.333C330.934 486.267 322.134 483.6 310.267 484.267C295.067 485.2 291.734 487.467 258.134 520.267L228 549.6L227.734 291.733C227.334 -0.666621 228.534 27.8667 215.867 14.1334C204.534 1.60005 186.4 -3.06662 170.934 2.40005Z" fill="white"/>
<path d="M521.601 1.46686C497.734 5.6002 478.934 15.7335 460.667 34.0002C445.867 48.8002 438.534 60.2669 432.801 77.4669C426.801 95.3335 426.534 100.934 426.934 193.334L427.334 280.667L430.534 287.734C437.067 302.267 453.201 312.534 469.334 312.534C485.467 312.534 501.601 302.267 508.134 287.734C511.068 281.2 511.334 278.667 511.734 254.267L512.268 228H540.801H569.334V253.334C569.334 283.067 570.801 289.2 580.801 299.334C591.734 310.667 606.801 315.2 621.068 311.467C635.468 307.867 644.001 300.667 650.534 286.667L654.001 279.334V188.667C654.001 106.534 653.734 97.2002 651.601 88.9335C642.401 52.9335 620.268 25.8669 587.734 10.8002C581.734 8.0002 572.801 4.66686 568.001 3.33353C557.734 0.666864 531.601 -0.399802 521.601 1.46686ZM558.134 75.2002C566.668 79.2002 574.534 86.8002 578.801 95.4669C581.868 101.6 582.001 103.6 582.401 128.934L582.801 156H540.001H497.068L497.601 130.267C498.001 105.334 498.134 104.4 501.868 96.2669C511.868 74.6669 536.668 65.4669 558.134 75.2002Z" fill="white"/>
<path d="M460.134 370.667C448.267 373.2 435.867 383.467 430.401 395.333C425.734 405.467 426.001 420.8 431.067 430.933C435.067 439.2 442.134 446.267 450.934 450.933C456.534 453.867 458.001 454 501.601 454.667L546.534 455.333L491.867 516.667C434.534 581.067 431.467 585.2 428.134 601.067C420.667 636.667 443.734 672.4 479.201 680.667C486.801 682.4 498.267 682.667 555.067 682.4L622.001 682L629.067 678.8C643.601 672.267 653.867 656.133 653.867 640C653.867 623.867 643.601 607.733 629.067 601.2C622.134 598.133 620.801 598 578.267 597.333L534.667 596.667L555.467 573.333C630.934 488.8 644.134 473.333 648.001 465.067C658.001 443.733 655.201 417.2 640.801 397.733C632.001 385.6 622.667 378.8 607.201 373.067C599.467 370.133 597.867 370.133 532.667 369.867C496.001 369.733 463.334 370.133 460.134 370.667Z" fill="white"/>
</g>
<defs>
<clipPath id="clip0_625_434">
<rect width="682.667" height="682.667" fill="white"/>
</clipPath>
</defs>
</svg>
