<svg width="683" height="683" viewBox="0 0 683 683" fill="none" xmlns="http://www.w3.org/2000/svg">
<path d="M503.296 3.16503C496.902 6.67031 403.257 100.282 399.956 106.468C393.356 119.045 398.306 139.252 409.857 147.706C416.664 152.449 430.896 154.717 439.56 152.655C442.86 151.83 453.792 142.758 464.518 132.242L483.701 113.478V338.229C483.701 483.595 484.526 565.453 485.763 570.402C488.651 580.505 501.439 591.846 512.372 593.702C523.304 595.557 538.361 588.547 544.962 578.443L549.706 571.433V342.971C549.706 217.193 550.325 114.303 551.356 114.303C552.181 114.303 560.225 121.726 569.301 131.005C588.484 150.387 593.641 153.48 606.016 153.48C629.325 153.48 645.207 127.499 634.688 106.88C629.325 96.7766 538.361 6.05173 530.523 3.16503C523.097 0.278324 508.659 0.278324 503.296 3.16503Z" fill="white"/>
<path d="M151.916 92.5382C146.756 95.2199 140.565 100.377 138.089 104.296L133.342 111.31V339.871C133.342 465.703 132.723 568.638 131.691 568.638C130.865 568.638 122.817 561.212 113.736 551.929C94.5428 532.539 89.3834 529.444 77.0008 529.444C53.6801 529.444 37.789 555.436 48.3143 576.064C53.6801 586.172 144.693 676.936 152.535 679.824C160.79 682.919 173.792 682.712 180.396 679.206C190.096 674.048 283.585 578.54 285.236 572.145C287.299 563.068 285.029 549.041 280.283 542.234C274.71 534.395 263.979 529.444 253.041 529.444C241.277 529.444 238.182 531.507 217.544 551.723L199.383 569.67V344.822C199.383 203.518 198.557 117.292 197.319 112.754C193.81 99.9644 177.713 88 164.298 88C162.441 88 156.869 90.0628 151.916 92.5382Z" fill="white"/>
</svg>
