<svg width="683" height="683" viewBox="0 0 683 683" fill="none" xmlns="http://www.w3.org/2000/svg">
<g clip-path="url(#clip0_625_439)">
<path d="M170.934 2.40005C167.067 3.86671 161.6 6.80005 158.934 8.93338C152.8 13.7334 145.867 23.8667 144 30.4C143.2 33.7334 142.667 121.467 142.667 292.267C142.667 433.733 142.267 549.333 141.734 549.333C141.2 549.333 127.334 535.867 110.8 519.6C83.7338 492.8 79.8671 489.467 72.9338 486.933C57.6005 481.2 40.6671 484 29.0671 494.4C19.8671 502.8 15.7338 511.467 14.9338 524C14.0005 540 17.2005 546.533 33.8671 563.333C75.6005 605.6 142.8 670.533 148 673.6C159.6 680.267 169.334 682.667 185.067 682.667C201.467 682.667 210.934 680.133 222.534 672.933C230.534 667.867 344.134 556.533 348.8 549.067C353.334 541.867 356.4 529.067 355.334 521.467C354 511.333 347.334 499.2 339.867 493.333C330.934 486.267 322.134 483.6 310.267 484.267C295.067 485.2 291.734 487.467 258.134 520.267L228 549.6L227.734 291.733C227.334 -0.666621 228.534 27.8667 215.867 14.1334C204.534 1.60005 186.4 -3.06662 170.934 2.40005Z" fill="white"/>
<path d="M459.334 1.20015C447.334 4.13348 436.267 13.2001 430.667 24.6668C426.267 33.8668 426.134 51.2001 430.401 60.0001C434.934 69.4668 440.401 75.0668 449.601 80.1335L458.001 84.6668L502.134 85.3335L546.267 86.0002L517.734 118C459.601 183.067 436.534 209.6 433.734 215.067C423.601 234.4 425.201 262.4 437.334 281.467C447.201 296.667 466.134 309.067 484.001 312C489.067 312.8 518.267 313.333 553.334 313.333C625.067 313.333 627.601 312.933 640.534 301.467C649.601 293.2 655.734 277.067 654.001 265.467C652.001 251.2 641.867 237.2 629.467 231.467C623.734 228.8 620.801 228.667 578.801 228L534.401 227.333L585.334 170C645.334 102.667 645.601 102.133 649.201 92.6668C663.867 53.6001 642.401 12.4001 602.001 2.00015C595.467 0.400146 583.334 0.000146419 528.667 0.13348C492.801 0.266813 461.601 0.666813 459.334 1.20015Z" fill="white"/>
<path d="M525.601 370.667C486.401 376.133 454.267 400.133 437.201 436.667C426.667 459.067 426.534 461.067 426.934 562.4L427.334 651.333L430.401 657.333C435.067 666.933 440.401 672.533 449.601 677.467C457.334 681.6 458.934 682 469.334 682C479.734 682 481.334 681.6 489.067 677.467C498.401 672.4 502.401 668.267 507.734 658.133C511.201 651.467 511.334 650.533 511.734 624.267L512.267 597.333H540.667H569.201L569.601 624.933C570.001 650.8 570.267 653.067 573.067 658.4C577.734 667.2 584.801 674.267 593.067 678.267C599.467 681.467 602.267 682 611.334 682C625.334 681.867 633.601 678.4 642.534 668.533C654.534 655.467 654.001 660.133 654.001 558C654.001 470.4 654.001 468.4 651.067 457.2C642.134 422.4 618.934 394.267 587.067 379.867C570.134 372.133 543.601 368.133 525.601 370.667ZM554.667 443.6C563.334 446.4 573.601 455.467 578.401 464.533C581.867 471.2 582.001 471.867 582.401 499.067L582.801 526.667L540.401 526.4L498.001 526V500C498.001 478 498.401 473.2 500.401 468.667C505.867 456.267 514.801 447.6 526.401 443.333C533.334 440.8 546.401 440.933 554.667 443.6Z" fill="white"/>
</g>
<defs>
<clipPath id="clip0_625_439">
<rect width="682.667" height="682.667" fill="white"/>
</clipPath>
</defs>
</svg>
