<svg width="47" height="47" viewBox="0 0 47 47" fill="none" xmlns="http://www.w3.org/2000/svg">
<path d="M17.506 36.6306C13.7637 36.6306 10.2783 35.5335 7.34375 33.6461C9.07934 33.8569 10.8395 33.7232 12.5233 33.2527C14.2071 32.7821 15.7816 31.984 17.1565 30.904C15.7727 30.8786 14.4315 30.4207 13.3212 29.5943C12.2109 28.768 11.3872 27.6148 10.9657 26.2965C11.3711 26.3758 11.7867 26.4169 12.2112 26.4169C12.8163 26.4169 13.4038 26.3347 13.9634 26.1878C12.4633 25.884 11.1143 25.0711 10.1448 23.8867C9.17531 22.7023 8.64498 21.2192 8.64359 19.6886V19.6019C9.56268 20.114 10.5912 20.3981 11.6428 20.4303C10.7341 19.8249 9.98929 19.0041 9.47472 18.0411C8.96014 17.078 8.69177 16.0027 8.69353 14.9108C8.69353 13.7005 9.024 12.5578 9.59241 11.5796C11.2569 13.6276 13.3336 15.3025 15.6877 16.4956C18.0417 17.6887 20.6204 18.3733 23.2562 18.5048C22.9259 17.0835 23.0735 15.593 23.676 14.264C24.2784 12.935 25.3022 11.8417 26.5889 11.1534C27.8755 10.4651 29.3532 10.2202 30.7931 10.4565C32.2329 10.6929 33.5548 11.3974 34.5538 12.4609C36.0377 12.1672 37.4611 11.6238 38.7633 10.8541C38.2678 12.3889 37.2332 13.6923 35.8507 14.523C37.1644 14.3662 38.4475 14.0147 39.6577 13.4802C38.7653 14.8097 37.6456 15.9716 36.3501 16.9127C36.3618 17.1961 36.3707 17.4825 36.3707 17.7689C36.3692 26.5256 29.6996 36.6321 17.506 36.6306Z" fill="white"/>
</svg>
