<svg width="17" height="17" viewBox="0 0 17 17" fill="none" xmlns="http://www.w3.org/2000/svg">
<path fill-rule="evenodd" clip-rule="evenodd" d="M15.8667 10.2C15.2411 10.2 14.7333 10.7077 14.7333 11.3333V13.6H2.26667V11.3333C2.26667 10.7077 1.75893 10.2 1.13333 10.2C0.507733 10.2 0 10.7077 0 11.3333V15.3C0 15.5714 0.295233 15.8667 0.566667 15.8667H16.4333C16.7756 15.8667 17 15.6071 17 15.3V11.3333C17 10.7077 16.4923 10.2 15.8667 10.2ZM6.23333 5.66668H7.36667V10.7667C7.36667 11.3923 7.8744 11.9 8.5 11.9C9.1256 11.9 9.63333 11.3923 9.63333 10.7667V5.66668H10.7667C11.1656 5.66668 11.5181 5.72052 11.7408 5.49668C11.9623 5.27398 11.9623 4.91187 11.7408 4.6886L8.93973 1.29372C8.82073 1.17472 8.66376 1.1237 8.50906 1.1322C8.3538 1.1237 8.19682 1.17472 8.07839 1.29372L5.27736 4.6886C5.05523 4.91187 5.05523 5.27398 5.27736 5.49668C5.49949 5.72052 6.0112 5.66668 6.23333 5.66668Z" fill="white"/>
</svg>
