<svg width="48" height="46" viewBox="0 0 48 46" fill="none" xmlns="http://www.w3.org/2000/svg">
<path d="M38.6879 15.4534C38.5138 14.7822 38.1646 14.1693 37.676 13.6773C37.1874 13.1853 36.577 12.8318 35.907 12.653C31.8454 12.1739 27.757 11.9581 23.6674 12.0067C19.5779 11.9581 15.4895 12.1739 11.4279 12.653C10.758 12.8318 10.1475 13.1853 9.65898 13.6773C9.17039 14.1693 8.8212 14.7822 8.64705 15.4534C8.20214 17.9482 7.98582 20.4784 8.0008 23.0125C7.98507 25.5597 8.20139 28.103 8.64705 30.6109C8.83023 31.2712 9.18344 31.8718 9.67141 32.353C10.1594 32.8342 10.765 33.1788 11.4279 33.3525C15.4895 33.8315 19.5779 34.0475 23.6674 33.9988C27.757 34.0475 31.8454 33.8315 35.907 33.3525C36.5699 33.1788 37.1756 32.8342 37.6635 32.353C38.1515 31.8718 38.5048 31.2712 38.6879 30.6109C39.1336 28.103 39.3498 25.5597 39.3341 23.0125C39.3492 20.4784 39.1328 17.9482 38.6879 15.4534ZM20.4558 27.6929V18.3713L28.6612 23.0125L20.4558 27.6734V27.6929Z" fill="white"/>
</svg>
